<svg width="87" height="36" viewBox="0 0 87 36" fill="none" xmlns="http://www.w3.org/2000/svg">
<g clip-path="url(#clip0_4037_63859)">
<path d="M86.0358 10.5882C86.2194 10.7724 86.3107 10.9939 86.3107 11.2528C86.3107 11.5116 86.2194 11.7331 86.0358 11.9198C85.8521 12.1052 85.6301 12.1979 85.3684 12.1979C85.1067 12.1979 84.8858 12.1064 84.7034 11.9222C84.5221 11.738 84.4309 11.5164 84.4309 11.2576C84.4309 10.9987 84.5221 10.7772 84.7058 10.5906C84.8894 10.4052 85.1103 10.3125 85.3708 10.3125C85.6301 10.3125 85.8521 10.404 86.0358 10.5882ZM85.9566 11.8415C86.1162 11.6778 86.1966 11.4827 86.1966 11.2552C86.1966 11.0276 86.1174 10.8338 85.959 10.6713C85.8005 10.5099 85.6061 10.4293 85.3756 10.4293C85.1451 10.4293 84.9506 10.5099 84.791 10.6725C84.6313 10.835 84.5521 11.03 84.5521 11.2588C84.5521 11.4875 84.6313 11.6826 84.7886 11.8439C84.9458 12.0052 85.1403 12.0859 85.3708 12.0859C85.6012 12.0859 85.7957 12.004 85.9566 11.8415ZM85.8245 11.0734C85.8245 11.2419 85.7513 11.3479 85.6037 11.3912L85.8737 11.7584H85.6553L85.4116 11.4177H85.1883V11.7584H85.0119V10.7399H85.3936C85.5472 10.7399 85.6577 10.7664 85.7249 10.8194C85.7921 10.8723 85.8245 10.9566 85.8245 11.0734ZM85.5976 11.2167C85.6337 11.1878 85.6505 11.1384 85.6505 11.0722C85.6505 11.006 85.6325 10.959 85.5964 10.9325C85.5604 10.906 85.4956 10.894 85.4044 10.894H85.1883V11.2612H85.3984C85.4956 11.26 85.5628 11.2455 85.5976 11.2167Z" fill="#6D6E71"/>
<path d="M22.4025 6.40108V8.27199H22.1624V6.40108H21.4806V6.16992H23.0879V6.40108H22.4025Z" fill="#6D6E71"/>
<path d="M25.7467 8.26929V7.34346H24.4839V8.26929H24.2439V6.16602H24.4839V7.11592H25.7467V6.16602H25.9868V8.26929H25.7467Z" fill="#6D6E71"/>
<path d="M27.6577 6.39837V7.08943H28.7153V7.32059H27.6577V8.04054H28.8797V8.26929H27.4177V6.16602H28.8413V6.39717H27.6577V6.39837Z" fill="#6D6E71"/>
<path d="M19.6524 22.6862L24.6616 10.6758H25.6231L30.6322 22.6862H29.367L27.815 18.9312H22.4349L20.8996 22.6862H19.6524ZM25.1513 12.0627L22.6893 18.0005H27.5473L25.1513 12.0627Z" fill="#D22128"/>
<path d="M31.925 22.6862V10.6758H36.8838C38.9413 10.6758 40.4261 12.5876 40.4261 14.4477C40.4261 16.4101 39.0433 18.2533 36.9859 18.2533H33.0894V22.685H31.925V22.6862ZM33.0894 17.2047H36.9174C38.3339 17.2047 39.245 15.9021 39.245 14.4477C39.245 12.9416 38.1322 11.7244 36.8166 11.7244H33.0894V17.2047Z" fill="#D22128"/>
<path d="M39.7708 22.6862L44.7799 10.6758H45.7414L50.7506 22.6862H49.4854L47.9333 18.9312H42.5532L41.0179 22.6862H39.7708ZM45.2697 12.0627L42.8077 18.0005H47.6656L45.2697 12.0627Z" fill="#D22128"/>
<path d="M56.4177 10.6055C58.5423 10.6055 60.0944 11.6878 60.8363 13.2276L59.8916 13.8031C59.1329 12.2127 57.6481 11.6722 56.3492 11.6722C53.4815 11.6722 51.9138 14.2438 51.9138 16.6625C51.9138 19.3183 53.8536 21.7202 56.3997 21.7202C57.7489 21.7202 59.3346 21.0436 60.0932 19.4869L61.0715 19.9937C60.2961 21.7864 58.1702 22.7845 56.3324 22.7845C53.0434 22.7845 50.7327 19.6386 50.7327 16.5938C50.7339 13.702 52.8081 10.6055 56.4177 10.6055Z" fill="#D22128"/>
<path d="M72.1642 10.6758V22.6862H70.9831V17.0699H63.8828V22.6862H62.7196V10.6758H63.8828V16.0212H70.9831V10.6758H72.1642Z" fill="#D22128"/>
<path d="M82.9136 21.6364V22.685H74.8687V10.6758H82.7623V11.7244H76.033V16.055H81.9029V17.053H76.033V21.6376H82.9136V21.6364Z" fill="#D22128"/>
<path d="M20.7699 25.2271C20.9116 25.2693 21.0364 25.327 21.1421 25.3981L21.0184 25.6702C20.9104 25.5979 20.7951 25.545 20.6715 25.5088C20.5491 25.4739 20.4314 25.4559 20.321 25.4559C20.1577 25.4559 20.0269 25.4848 19.9297 25.5438C19.8324 25.6027 19.7832 25.6858 19.7832 25.793C19.7832 25.8845 19.8108 25.9615 19.8648 26.0217C19.9189 26.0819 19.9873 26.1289 20.0689 26.1626C20.1505 26.1963 20.2622 26.2348 20.405 26.2782C20.5779 26.3335 20.7171 26.3853 20.8215 26.4335C20.9272 26.4816 21.0172 26.5527 21.0916 26.6478C21.1661 26.7417 21.2033 26.8669 21.2033 27.021C21.2033 27.1618 21.1649 27.2834 21.0892 27.3894C21.0136 27.4941 20.9056 27.576 20.7675 27.6338C20.6283 27.6916 20.4686 27.7205 20.2874 27.7205C20.1061 27.7205 19.9309 27.6856 19.7604 27.6157C19.59 27.5459 19.4435 27.452 19.3211 27.334L19.4495 27.074C19.5648 27.1871 19.698 27.275 19.8492 27.3376C20.0005 27.4002 20.1469 27.4315 20.291 27.4315C20.4746 27.4315 20.6187 27.3954 20.7243 27.3244C20.83 27.2533 20.8828 27.157 20.8828 27.0366C20.8828 26.9427 20.8552 26.8645 20.7999 26.8031C20.7447 26.7417 20.6763 26.6947 20.5947 26.6598C20.5131 26.6261 20.4014 26.5876 20.2586 26.5442C20.0881 26.4937 19.9501 26.4443 19.8432 26.3973C19.7364 26.3504 19.6464 26.2806 19.5732 26.1867C19.4999 26.094 19.4627 25.9712 19.4627 25.8183C19.4627 25.687 19.4987 25.5727 19.5708 25.4739C19.6428 25.3752 19.746 25.2982 19.8781 25.244C20.0113 25.1898 20.1637 25.1621 20.3366 25.1621C20.4842 25.1633 20.6271 25.185 20.7699 25.2271Z" fill="#6D6E71"/>
<path d="M24.5211 25.3397C24.7228 25.4529 24.8836 25.6082 25.0013 25.802C25.1189 25.997 25.1789 26.2101 25.1789 26.4437C25.1789 26.6785 25.1201 26.894 25.0013 27.089C24.8836 27.2853 24.7228 27.4394 24.5211 27.5537C24.3195 27.6681 24.0974 27.7259 23.8585 27.7259C23.6148 27.7259 23.3928 27.6693 23.1899 27.5537C22.9882 27.4394 22.8274 27.2841 22.7098 27.089C22.5921 26.8928 22.5321 26.6785 22.5321 26.4437C22.5321 26.2089 22.5909 25.9946 22.7098 25.7996C22.8274 25.6046 22.9882 25.4505 23.1899 25.3385C23.3916 25.2253 23.6148 25.1699 23.8585 25.1699C24.0974 25.1687 24.3183 25.2253 24.5211 25.3397ZM23.3424 25.5793C23.1851 25.6684 23.0591 25.79 22.9654 25.9417C22.8718 26.0934 22.8238 26.2607 22.8238 26.4437C22.8238 26.6279 22.8706 26.7965 22.9654 26.9494C23.0591 27.1023 23.1851 27.2239 23.3424 27.3129C23.4996 27.402 23.6713 27.4466 23.8573 27.4466C24.0434 27.4466 24.2138 27.402 24.3699 27.3129C24.5259 27.2239 24.6496 27.1035 24.7432 26.9494C24.8356 26.7965 24.8824 26.6279 24.8824 26.4437C24.8824 26.2595 24.8356 26.0922 24.7432 25.9405C24.6508 25.7888 24.5259 25.6684 24.3699 25.5793C24.2138 25.4902 24.0434 25.4444 23.8585 25.4444C23.6725 25.4444 23.5008 25.489 23.3424 25.5793Z" fill="#6D6E71"/>
<path d="M26.9987 25.4551V26.346H28.1799V26.6253H26.9987V27.7113H26.7094V25.1758H28.3156V25.4551H26.9987Z" fill="#6D6E71"/>
<path d="M30.6611 25.4551V27.7113H30.3718V25.4551H29.5508V25.1758H31.4882V25.4551H30.6611Z" fill="#6D6E71"/>
<path d="M35.2249 27.7113L34.5431 25.5755L33.8517 27.7113H33.5576L32.7113 25.1758H33.0222L33.7173 27.3754L34.4027 25.1794L34.692 25.1758L35.3846 27.3754L36.07 25.1758H36.3701L35.5226 27.7113H35.2249Z" fill="#6D6E71"/>
<path d="M37.8117 27.0708L37.5296 27.7113H37.2224L38.3555 25.1758H38.6556L39.7852 27.7113H39.4719L39.1898 27.0708H37.8117ZM38.4984 25.5057L37.9354 26.7915H39.0685L38.4984 25.5057Z" fill="#6D6E71"/>
<path d="M42.2987 26.9034C42.2267 26.9082 42.1703 26.9107 42.1295 26.9107H41.4573V27.7113H41.1692V25.1758H42.1295C42.444 25.1758 42.6889 25.2504 42.8641 25.3985C43.0382 25.5466 43.1258 25.7573 43.1258 26.0282C43.1258 26.2352 43.0766 26.4098 42.9794 26.5495C42.8821 26.6891 42.7417 26.7903 42.5592 26.8505L43.1498 27.7113H42.8221L42.2987 26.9034ZM42.6613 26.4808C42.7849 26.3797 42.8473 26.2304 42.8473 26.0354C42.8473 25.844 42.7849 25.6995 42.6613 25.602C42.5376 25.5045 42.36 25.4551 42.1295 25.4551H41.4573V26.6325H42.1295C42.36 26.6325 42.5376 26.582 42.6613 26.4808Z" fill="#6D6E71"/>
<path d="M45.026 25.4551V26.2882H46.3009V26.5675H45.026V27.4356H46.5001V27.7113H44.7368V25.1758H46.4521V25.4551H45.026Z" fill="#6D6E71"/>
<path d="M50.5322 25.4551V26.346H51.7133V26.6253H50.5322V27.7113H50.2429V25.1758H51.849V25.4551H50.5322Z" fill="#6D6E71"/>
<path d="M55.0492 25.3397C55.2509 25.4529 55.4117 25.6082 55.5294 25.802C55.647 25.997 55.707 26.2101 55.707 26.4437C55.707 26.6785 55.6482 26.894 55.5294 27.089C55.4117 27.2853 55.2509 27.4394 55.0492 27.5537C54.8475 27.6681 54.6255 27.7259 54.3866 27.7259C54.1429 27.7259 53.9209 27.6693 53.718 27.5537C53.5163 27.4394 53.3555 27.2841 53.2378 27.089C53.1202 26.8928 53.0602 26.6785 53.0602 26.4437C53.0602 26.2089 53.119 25.9946 53.2378 25.7996C53.3555 25.6046 53.5163 25.4505 53.718 25.3385C53.9197 25.2253 54.1429 25.1699 54.3866 25.1699C54.6267 25.1687 54.8475 25.2253 55.0492 25.3397ZM53.8716 25.5793C53.7144 25.6684 53.5883 25.79 53.4947 25.9417C53.4011 26.0934 53.3531 26.2607 53.3531 26.4437C53.3531 26.6279 53.3999 26.7965 53.4947 26.9494C53.5883 27.1023 53.7144 27.2239 53.8716 27.3129C54.0289 27.402 54.2005 27.4466 54.3866 27.4466C54.5727 27.4466 54.7431 27.402 54.8992 27.3129C55.0552 27.2239 55.1788 27.1035 55.2725 26.9494C55.3649 26.7965 55.4117 26.6279 55.4117 26.4437C55.4117 26.2595 55.3649 26.0922 55.2725 25.9405C55.18 25.7888 55.0552 25.6684 54.8992 25.5793C54.7431 25.4902 54.5727 25.4444 54.3878 25.4444C54.2005 25.4444 54.0289 25.489 53.8716 25.5793Z" fill="#6D6E71"/>
<path d="M59.0272 27.4457C58.8388 27.6323 58.5795 27.7262 58.2494 27.7262C57.9169 27.7262 57.6564 27.6323 57.4679 27.4457C57.2795 27.259 57.1847 27.0002 57.1847 26.6679V25.175H57.4739V26.6679C57.4739 26.9123 57.5436 27.1025 57.6816 27.2398C57.8209 27.377 58.0093 27.4457 58.2494 27.4457C58.4907 27.4457 58.6791 27.377 58.8148 27.241C58.9516 27.1049 59.0188 26.9135 59.0188 26.6667V25.1738H59.3081V26.6667C59.3093 27.0002 59.2157 27.259 59.0272 27.4457Z" fill="#6D6E71"/>
<path d="M62.806 27.7113L61.29 25.6754V27.7113H61.0007V25.1758H61.3008L62.8168 27.214V25.1758H63.1025V27.7113H62.806Z" fill="#6D6E71"/>
<path d="M66.514 25.3431C66.7109 25.4551 66.8669 25.6068 66.981 25.7994C67.0962 25.992 67.1526 26.2076 67.1526 26.4435C67.1526 26.6795 67.095 26.8962 66.981 27.0888C66.8669 27.2827 66.7097 27.4344 66.5092 27.5451C66.31 27.6559 66.0867 27.7113 65.843 27.7113H64.8311V25.1758H65.8538C66.0975 25.1758 66.3172 25.2312 66.514 25.3431ZM65.1204 27.4356H65.8574C66.0435 27.4356 66.2127 27.3934 66.3652 27.3079C66.5176 27.2225 66.6389 27.1045 66.7277 26.9528C66.8165 26.8023 66.8609 26.6337 66.8609 26.4471C66.8609 26.2605 66.8153 26.0932 66.7253 25.9427C66.6353 25.7922 66.5128 25.6742 66.358 25.5863C66.2043 25.4996 66.0339 25.4551 65.8466 25.4551H65.1204V27.4356Z" fill="#6D6E71"/>
<path d="M68.7971 27.0708L68.515 27.7113H68.2077L69.3409 25.1758H69.641L70.7705 27.7113H70.4584L70.1764 27.0708H68.7971ZM69.4837 25.5057L68.9208 26.7915H70.0539L69.4837 25.5057Z" fill="#6D6E71"/>
<path d="M72.6672 25.4551V27.7113H72.3791V25.4551H71.558V25.1758H73.4954V25.4551H72.6672Z" fill="#6D6E71"/>
<path d="M74.8867 27.7113V25.1758H75.176V27.7113H74.8867Z" fill="#6D6E71"/>
<path d="M78.7015 25.3397C78.9032 25.4529 79.064 25.6082 79.1816 25.802C79.2993 25.997 79.3593 26.2101 79.3593 26.4437C79.3593 26.6785 79.3005 26.894 79.1816 27.089C79.064 27.2853 78.9032 27.4394 78.7015 27.5537C78.4998 27.6681 78.2778 27.7259 78.0389 27.7259C77.7952 27.7259 77.5731 27.6693 77.3703 27.5537C77.1686 27.4394 77.0078 27.2841 76.8901 27.089C76.7725 26.8928 76.7125 26.6785 76.7125 26.4437C76.7125 26.2089 76.7713 25.9946 76.8901 25.7996C77.0078 25.6046 77.1686 25.4505 77.3703 25.3385C77.5719 25.2253 77.7952 25.1699 78.0389 25.1699C78.279 25.1687 78.4998 25.2253 78.7015 25.3397ZM77.5239 25.5793C77.3667 25.6684 77.2406 25.79 77.147 25.9417C77.0534 26.0934 77.0054 26.2607 77.0054 26.4437C77.0054 26.6279 77.0522 26.7965 77.147 26.9494C77.2406 27.1023 77.3667 27.2239 77.5239 27.3129C77.6812 27.402 77.8528 27.4466 78.0389 27.4466C78.2249 27.4466 78.3954 27.402 78.5514 27.3129C78.7075 27.2239 78.8311 27.1035 78.9248 26.9494C79.0172 26.7965 79.064 26.6279 79.064 26.4437C79.064 26.2595 79.0172 26.0922 78.9248 25.9405C78.8323 25.7888 78.7075 25.6684 78.5514 25.5793C78.3954 25.4902 78.2249 25.4444 78.0401 25.4444C77.8528 25.4444 77.6824 25.489 77.5239 25.5793Z" fill="#6D6E71"/>
<path d="M82.6963 27.7113L81.1803 25.6754V27.7113H80.891V25.1758H81.1911L82.7071 27.214V25.1758H82.9928V27.7113H82.6963Z" fill="#6D6E71"/>
<path d="M15.5183 0.549802C14.9745 0.872457 14.0707 1.78383 12.9915 3.10575L13.983 4.98269C14.6792 3.98463 15.3863 3.08649 16.0993 2.31959C16.1545 2.25818 16.1833 2.22929 16.1833 2.22929C16.1557 2.25939 16.1281 2.28949 16.0993 2.31959C15.8688 2.57482 15.169 3.39349 14.1127 5.02121C15.1294 4.97065 16.6923 4.76116 17.9671 4.54325C18.3464 2.41229 17.595 1.4371 17.595 1.4371C17.595 1.4371 16.6383 -0.113565 15.5183 0.549802Z" fill="url(#paint0_linear_4037_63859)"/>
<path d="M12.1872 16.3125C12.06 16.3354 11.9304 16.3582 11.7971 16.3811C11.7959 16.3811 11.7959 16.3823 11.7947 16.3823C11.8619 16.3727 11.9292 16.3619 11.994 16.351C12.06 16.339 12.1236 16.3257 12.1872 16.3125Z" fill="#BE202E"/>
<path opacity="0.35" d="M12.1872 16.3125C12.06 16.3354 11.9304 16.3582 11.7971 16.3811C11.7959 16.3811 11.7959 16.3823 11.7947 16.3823C11.8619 16.3727 11.9292 16.3619 11.994 16.351C12.06 16.339 12.1236 16.3257 12.1872 16.3125Z" fill="#BE202E"/>
<path d="M12.5198 14.6721C12.5186 14.6721 12.5186 14.6721 12.5198 14.6721C12.5186 14.6733 12.5174 14.6733 12.5174 14.6733C12.539 14.6709 12.5594 14.6673 12.5798 14.6637C12.6638 14.6516 12.7466 14.6372 12.8283 14.6191C12.7262 14.6372 12.6242 14.6541 12.5198 14.6721Z" fill="#BE202E"/>
<path opacity="0.35" d="M12.5198 14.6721C12.5186 14.6721 12.5186 14.6721 12.5198 14.6721C12.5186 14.6733 12.5174 14.6733 12.5174 14.6733C12.539 14.6709 12.5594 14.6673 12.5798 14.6637C12.6638 14.6516 12.7466 14.6372 12.8283 14.6191C12.7262 14.6372 12.6242 14.6541 12.5198 14.6721Z" fill="#BE202E"/>
<path d="M11.0589 9.82989C11.3602 9.26525 11.665 8.71264 11.9735 8.17569C12.294 7.61706 12.6181 7.0765 12.9447 6.55399C12.9639 6.52269 12.9831 6.49139 13.0023 6.46129C13.3264 5.94721 13.6529 5.45359 13.9818 4.98165L12.9903 3.10352C12.9158 3.19501 12.8402 3.28772 12.7646 3.38283C12.4789 3.7404 12.1812 4.12445 11.8775 4.53259C11.5342 4.99249 11.1813 5.48249 10.8236 5.99777C10.4923 6.47333 10.1574 6.97176 9.82126 7.48704C9.53557 7.92647 9.24868 8.37795 8.96419 8.84146C8.95339 8.85832 8.94259 8.87638 8.93298 8.89323L10.2234 11.4492C10.4971 10.9002 10.7768 10.3596 11.0589 9.82989Z" fill="url(#paint1_linear_4037_63859)"/>
<path d="M5.1818 24.2333C5.01135 24.7041 4.83969 25.1833 4.66684 25.6733C4.66444 25.6805 4.66204 25.6877 4.65964 25.6949C4.63563 25.7635 4.61042 25.8334 4.58641 25.902C4.46998 26.2319 4.37035 26.5292 4.13867 27.2047C4.51919 27.3792 4.82409 27.8367 5.11218 28.3556C5.08097 27.8175 4.8601 27.313 4.43757 26.9217C6.31136 27.006 7.92587 26.5317 8.76013 25.1568C8.83456 25.034 8.90298 24.9051 8.9642 24.7691C8.58488 25.2519 8.11433 25.4565 7.22965 25.4072C8.53326 24.8221 9.18747 24.2598 9.76485 23.3292C9.90169 23.1089 10.0349 22.8669 10.1706 22.5996C9.03142 23.7734 7.7098 24.1081 6.31856 23.8541L5.27543 23.9685C5.24662 24.0564 5.21421 24.1443 5.1818 24.2333Z" fill="url(#paint2_linear_4037_63859)"/>
<path d="M5.66917 21.889C5.89485 21.3051 6.12652 20.7128 6.36539 20.1169C6.59347 19.5462 6.82754 18.9707 7.06762 18.3928C7.30769 17.8149 7.55257 17.2358 7.80225 16.6567C8.05673 16.0668 8.31721 15.4793 8.58129 14.893C8.84298 14.3139 9.10946 13.7384 9.38075 13.1677C9.47798 12.9619 9.57641 12.7572 9.67604 12.5537C9.84649 12.201 10.0193 11.8506 10.1934 11.5039C10.203 11.4846 10.2126 11.4666 10.2222 11.4485L8.93181 8.89258C8.9102 8.92749 8.88979 8.96241 8.86818 8.99612C8.56689 9.48853 8.268 9.99177 7.9751 10.5058C7.67861 11.0247 7.38692 11.5545 7.10243 12.0914C6.86235 12.5441 6.62708 13.0016 6.399 13.4627C6.35339 13.5566 6.30778 13.6493 6.26336 13.742C5.98247 14.3223 5.72799 14.8834 5.49872 15.4215C5.23824 16.0319 5.01017 16.6158 4.8085 17.1684C4.67646 17.532 4.55642 17.8836 4.44719 18.2207C4.35716 18.5096 4.27073 18.7973 4.18911 19.0851C3.99704 19.7629 3.83019 20.4383 3.69455 21.1113L4.98976 23.6805C5.16141 23.2218 5.33667 22.7559 5.51793 22.2839C5.56714 22.1527 5.61876 22.0215 5.66917 21.889Z" fill="url(#paint3_linear_4037_63859)"/>
<path d="M3.67537 21.2048C3.51211 22.0259 3.39688 22.8445 3.33926 23.6584C3.33686 23.6873 3.33446 23.715 3.33326 23.7439C2.92873 23.0938 1.84479 22.4581 1.84719 22.4653C2.62263 23.5934 3.21202 24.713 3.29845 25.8122C2.88312 25.8977 2.31414 25.7737 1.65633 25.5317C2.34174 26.1638 2.85671 26.3384 3.05717 26.3853C2.42697 26.425 1.77156 26.8585 1.11135 27.3581C2.07766 26.9632 2.85791 26.8067 3.41728 26.9331C2.5302 29.4493 1.64192 32.228 0.752441 35.1776C1.02493 35.097 1.18698 34.914 1.27941 34.6648C1.43786 34.1302 2.48939 30.6244 4.13631 26.0181C4.18313 25.8869 4.22994 25.7557 4.27796 25.622C4.29116 25.5859 4.30436 25.5486 4.31757 25.5113C4.49162 25.0285 4.67168 24.5349 4.85894 24.0316C4.90095 23.9172 4.94417 23.8029 4.98738 23.6873C4.98858 23.6849 4.98858 23.6825 4.98978 23.6801L3.69457 21.1133C3.68857 21.1446 3.68137 21.1747 3.67537 21.2048Z" fill="url(#paint4_linear_4037_63859)"/>
<path d="M10.4226 11.6648C10.3854 11.7407 10.3482 11.8177 10.311 11.8948C10.1994 12.1259 10.0853 12.3619 9.97131 12.6027C9.84767 12.8639 9.72283 13.1312 9.59559 13.4033C9.53197 13.5406 9.46835 13.679 9.40353 13.8199C9.21027 14.2412 9.0146 14.6759 8.81654 15.1237C8.57286 15.6751 8.32438 16.2482 8.07231 16.8429C7.83223 17.41 7.58855 17.9975 7.34127 18.6043C7.1072 19.181 6.86953 19.7757 6.62945 20.3897C6.41578 20.9363 6.19851 21.4986 5.98124 22.0764C5.97044 22.1041 5.95964 22.133 5.95003 22.1607C5.73397 22.7338 5.5155 23.3237 5.29463 23.9281C5.28983 23.9413 5.28502 23.9558 5.27902 23.969L6.32215 23.8547C6.30175 23.851 6.28014 23.8486 6.25973 23.8438C7.50693 23.6873 9.16585 22.7531 10.2378 21.5985C10.7311 21.0663 11.1801 20.4391 11.5942 19.7047C11.9027 19.1581 12.192 18.5513 12.4681 17.8807C12.7094 17.2944 12.941 16.6599 13.1643 15.9713C12.8774 16.123 12.5497 16.2338 12.1872 16.3108C12.1236 16.3241 12.0588 16.3373 11.9939 16.3481C11.9279 16.3602 11.8619 16.3698 11.7947 16.3794C11.7959 16.3794 11.7959 16.3782 11.7971 16.3782C12.9603 15.9292 13.6937 15.0635 14.2267 14.0017C13.9206 14.2111 13.4236 14.4844 12.827 14.6169C12.7466 14.6349 12.6626 14.6494 12.5785 14.6614C12.5581 14.665 12.5365 14.6686 12.5161 14.671C12.5173 14.671 12.5173 14.671 12.5173 14.6698H12.5185C12.9218 14.5001 13.2627 14.3111 13.558 14.0871C13.6217 14.039 13.6829 13.9896 13.7417 13.9391C13.8317 13.8608 13.9182 13.7789 13.9998 13.6923C14.0526 13.6369 14.103 13.5803 14.1522 13.5213C14.2675 13.3828 14.3767 13.2336 14.4775 13.0722C14.5087 13.0229 14.5387 12.9723 14.5688 12.9205C14.6072 12.8459 14.6444 12.7724 14.6804 12.7002C14.8424 12.3727 14.9733 12.0802 15.0765 11.8237C15.1281 11.6961 15.1738 11.5769 15.2122 11.4662C15.2278 11.4216 15.2422 11.3795 15.2566 11.3386C15.2974 11.2158 15.331 11.1062 15.3574 11.0099C15.397 10.8654 15.421 10.751 15.4342 10.668C15.3946 10.6993 15.349 10.7306 15.2986 10.7607C14.9469 10.9714 14.3443 11.1628 13.8593 11.2519C13.8521 11.2531 13.8449 11.2543 13.8377 11.2555C13.7897 11.2639 13.7405 11.2711 13.6913 11.2796C13.6997 11.276 13.7081 11.2711 13.7165 11.2675L10.4395 11.6275C10.4347 11.6407 10.4286 11.6528 10.4226 11.6648Z" fill="url(#paint5_linear_4037_63859)"/>
<path d="M14.1114 5.02093C13.8198 5.47 13.5017 5.97926 13.1583 6.55595C13.1403 6.58604 13.1223 6.61735 13.1043 6.64745C12.809 7.14708 12.4945 7.69607 12.1644 8.29683C11.8787 8.81573 11.5822 9.37195 11.2725 9.9703C11.0037 10.4916 10.7252 11.0442 10.4395 11.6293L13.7165 11.2693C14.6708 10.8287 15.0982 10.4302 15.5123 9.85352C15.6227 9.6946 15.7332 9.52846 15.8424 9.3563C16.1785 8.82897 16.5098 8.24868 16.8039 7.67199C17.0884 7.11457 17.3405 6.56197 17.5325 6.06474C17.655 5.74811 17.7534 5.45314 17.8218 5.1943C17.8818 4.96555 17.9287 4.75005 17.9647 4.54297C16.6923 4.76088 15.1282 4.97037 14.1114 5.02093Z" fill="url(#paint6_linear_4037_63859)"/>
<path d="M11.9931 16.3496C11.9274 16.3616 11.8616 16.3712 11.7947 16.3808C11.8616 16.3724 11.9274 16.3616 11.9931 16.3496Z" fill="#BE202E"/>
<path opacity="0.35" d="M11.9931 16.3496C11.9274 16.3616 11.8616 16.3712 11.7947 16.3808C11.8616 16.3724 11.9274 16.3616 11.9931 16.3496Z" fill="#BE202E"/>
<path d="M11.9931 16.3496C11.9274 16.3616 11.8616 16.3712 11.7947 16.3808C11.8616 16.3724 11.9274 16.3616 11.9931 16.3496Z" fill="url(#paint7_linear_4037_63859)"/>
</g>
<defs>
<linearGradient id="paint0_linear_4037_63859" x1="13.8314" y1="3.33607" x2="21.0981" y2="1.32168" gradientUnits="userSpaceOnUse">
<stop stop-color="#F69923"/>
<stop offset="0.3123" stop-color="#F79A23"/>
<stop offset="0.8383" stop-color="#E97826"/>
</linearGradient>
<linearGradient id="paint1_linear_4037_63859" x1="-2.06731" y1="36.03" x2="12.7782" y2="4.28653" gradientUnits="userSpaceOnUse">
<stop offset="0.3233" stop-color="#9E2064"/>
<stop offset="0.6302" stop-color="#C92037"/>
<stop offset="0.7514" stop-color="#CD2335"/>
<stop offset="1" stop-color="#E97826"/>
</linearGradient>
<linearGradient id="paint2_linear_4037_63859" x1="2.89385" y1="33.681" x2="11.7403" y2="14.765" gradientUnits="userSpaceOnUse">
<stop stop-color="#282662"/>
<stop offset="0.0954839" stop-color="#662E8D"/>
<stop offset="0.7882" stop-color="#9F2064"/>
<stop offset="0.9487" stop-color="#CD2032"/>
</linearGradient>
<linearGradient id="paint3_linear_4037_63859" x1="-1.53276" y1="34.1077" x2="13.3128" y2="2.36424" gradientUnits="userSpaceOnUse">
<stop offset="0.3233" stop-color="#9E2064"/>
<stop offset="0.6302" stop-color="#C92037"/>
<stop offset="0.7514" stop-color="#CD2335"/>
<stop offset="1" stop-color="#E97826"/>
</linearGradient>
<linearGradient id="paint4_linear_4037_63859" x1="-0.0266235" y1="31.9914" x2="7.77515" y2="15.3093" gradientUnits="userSpaceOnUse">
<stop stop-color="#282662"/>
<stop offset="0.0954839" stop-color="#662E8D"/>
<stop offset="0.7882" stop-color="#9F2064"/>
<stop offset="0.9487" stop-color="#CD2032"/>
</linearGradient>
<linearGradient id="paint5_linear_4037_63859" x1="1.74631" y1="35.642" x2="16.5918" y2="3.89858" gradientUnits="userSpaceOnUse">
<stop offset="0.3233" stop-color="#9E2064"/>
<stop offset="0.6302" stop-color="#C92037"/>
<stop offset="0.7514" stop-color="#CD2335"/>
<stop offset="1" stop-color="#E97826"/>
</linearGradient>
<linearGradient id="paint6_linear_4037_63859" x1="0.667057" y1="37.5377" x2="15.5126" y2="5.79427" gradientUnits="userSpaceOnUse">
<stop offset="0.3233" stop-color="#9E2064"/>
<stop offset="0.6302" stop-color="#C92037"/>
<stop offset="0.7514" stop-color="#CD2335"/>
<stop offset="1" stop-color="#E97826"/>
</linearGradient>
<linearGradient id="paint7_linear_4037_63859" x1="2.75991" y1="36.0149" x2="17.5426" y2="4.4056" gradientUnits="userSpaceOnUse">
<stop offset="0.3233" stop-color="#9E2064"/>
<stop offset="0.6302" stop-color="#C92037"/>
<stop offset="0.7514" stop-color="#CD2335"/>
<stop offset="1" stop-color="#E97826"/>
</linearGradient>
<clipPath id="clip0_4037_63859">
<rect width="85.5583" height="34.7937" fill="white" transform="translate(0.752441 0.384766)"/>
</clipPath>
</defs>
</svg>
