<svg width="37" height="34" viewBox="0 0 37 34" fill="none" xmlns="http://www.w3.org/2000/svg">
<path d="M0.849518 17.2205V33.4766H18.5316H36.2136V17.2205V0.964428H18.5316H0.849518V17.2205ZM19.1903 4.71514C20.0348 4.74505 21.0409 4.90955 21.9392 5.16678C24.7001 5.9564 27.0657 7.67024 28.7665 10.1049C28.8593 10.2395 28.9372 10.3651 28.9372 10.3831C28.9372 10.407 28.8024 10.416 28.506 10.416H28.0748L27.937 10.2216C27.5567 9.69515 26.8141 8.86963 26.326 8.43594L26.1164 8.2505L25.6044 8.37911C24.6881 8.60343 23.679 8.78588 22.6728 8.90852C22.4453 8.93843 22.2596 8.97133 22.2596 8.9803C22.2596 8.99226 22.3015 9.13583 22.3524 9.29735C22.4692 9.68318 22.6489 10.3292 22.6489 10.3771C22.6489 10.407 22.5561 10.416 22.2746 10.416H21.9033L21.8524 10.2425C21.8284 10.1498 21.7775 9.9763 21.7476 9.86264C21.6517 9.53363 21.505 9.08797 21.4811 9.06106C21.4691 9.0461 21.2715 9.04909 21.0439 9.06704C20.8193 9.08498 20.1815 9.11489 19.6305 9.13583C18.5735 9.17172 17.0853 9.13882 16.0911 9.05507C15.8366 9.03414 15.618 9.02516 15.606 9.03713C15.5821 9.06106 15.3665 9.73403 15.2646 10.1139L15.1838 10.416H14.8155C14.4771 10.416 14.4442 10.41 14.4442 10.3621C14.4442 10.2963 14.6149 9.66225 14.7436 9.25248C14.7945 9.09695 14.8245 8.95936 14.8095 8.9474C14.7975 8.93843 14.6478 8.91151 14.4741 8.89356C13.6566 8.80084 12.4709 8.5825 11.5635 8.36116L11.0036 8.22358L10.8449 8.35817C10.3628 8.77093 9.58723 9.62037 9.18897 10.1677L9.00931 10.416H8.56913C8.32359 10.416 8.12595 10.407 8.12595 10.398C8.12595 10.3591 8.60506 9.69515 8.87456 9.35417C10.0244 7.9155 11.4318 6.78491 13.0967 5.96238C14.3663 5.33427 15.606 4.96638 17.0643 4.77795C17.4326 4.73009 18.4088 4.67925 18.6364 4.6942C18.6933 4.69719 18.9448 4.70916 19.1903 4.71514ZM17.783 11.5555C18.2501 11.6124 18.5136 11.6243 19.7683 11.6333L21.2116 11.6453V13.2604V14.8726H19.924H18.6394L18.6304 14.5226L18.6214 14.1697L18.4417 14.0979C17.9267 13.8945 17.235 13.7838 16.4654 13.7808C15.7078 13.7808 15.3665 13.8467 15.0401 14.065C14.7047 14.2833 14.6568 14.729 14.9353 15.0042C15.2257 15.2973 15.5821 15.39 17.1691 15.5874C18.5405 15.7609 19.0706 15.8716 19.7353 16.1318C20.0557 16.2574 20.46 16.4937 20.7115 16.706C21.0828 17.0141 21.3882 17.5226 21.529 18.061C21.6338 18.4618 21.6637 19.2334 21.5889 19.6432C21.4601 20.3431 21.1966 20.8456 20.7145 21.3032C20.1935 21.7997 19.5227 22.1257 18.5974 22.3321C17.5763 22.5624 16.13 22.5983 14.6807 22.4338C14.1837 22.38 13.8962 22.368 12.7014 22.359L11.3 22.3471V20.7469V19.1497H12.5876H13.8752V19.4787V19.8077L13.992 19.8675C14.3723 20.059 15.1539 20.1995 15.9773 20.2175C17.3967 20.2534 18.0345 20.0021 18.0375 19.4039C18.0375 19.1706 17.9716 19.045 17.774 18.9074C17.4865 18.704 17.0823 18.6113 15.7917 18.4468C14.2406 18.2464 13.6267 18.1058 12.953 17.7888C11.878 17.2803 11.3479 16.5056 11.2401 15.2853C11.1803 14.6393 11.2851 14.0351 11.5396 13.5087C12.1115 12.3272 13.4201 11.6483 15.4473 11.4808C15.8545 11.4479 17.2619 11.4927 17.783 11.5555ZM29.1168 11.5376C30.4523 11.738 31.5154 12.2405 32.3388 13.06C33.342 14.062 33.827 15.3481 33.8241 16.9962C33.8241 17.7858 33.7372 18.378 33.5306 19.0001C32.8269 21.1118 31.0033 22.374 28.4371 22.5265C27.0926 22.6043 25.7242 22.3381 24.745 21.8057C24.0832 21.4468 23.3795 20.8157 22.9992 20.2414C22.5381 19.5415 22.2536 18.7399 22.1398 17.8037C22.0949 17.4299 22.1039 16.4847 22.1548 16.0929C22.4003 14.2385 23.3945 12.8327 24.9935 12.076C25.6613 11.7619 26.3829 11.5735 27.2753 11.4808C27.5747 11.4509 28.7874 11.4868 29.1168 11.5376ZM10.5215 13.0032V14.3342H9.65311H8.78473V17.0261V19.718H9.65311H10.5215V21.049V22.38L7.07192 22.374L3.61935 22.365L3.61037 21.04L3.60438 19.718H4.47276H5.34115V17.0261V14.3342L4.48175 14.3282L3.61935 14.3192L3.61037 12.9942L3.60438 11.6722H7.06294H10.5215V13.0032ZM9.11411 23.7768C9.4944 24.3151 10.3269 25.2394 10.797 25.6461L10.9677 25.7927L11.4557 25.6731C12.393 25.4427 13.3213 25.2723 14.2795 25.1556C14.5759 25.1197 14.8215 25.0868 14.8275 25.0838C14.8335 25.0808 14.7945 24.9462 14.7436 24.7817C14.6208 24.3959 14.4442 23.7558 14.4442 23.69C14.4442 23.6422 14.4801 23.6362 14.8155 23.6362H15.1838L15.2646 23.9263C15.3096 24.0878 15.4024 24.3989 15.4683 24.6202L15.594 25.018L15.7617 25.0001C16.7289 24.9014 19.2502 24.8745 20.433 24.9522C20.8043 24.9761 21.1936 24.9971 21.2984 24.9971H21.493L21.5948 24.683C21.6517 24.5096 21.7416 24.2075 21.7955 24.0101L21.8943 23.6511L22.2716 23.6422C22.5231 23.6362 22.6489 23.6452 22.6489 23.6661C22.6489 23.7169 22.3884 24.6501 22.3075 24.8834L22.2327 25.0988L22.3285 25.1137C22.3824 25.1227 22.592 25.1526 22.7986 25.1765C23.676 25.2872 24.7659 25.4936 25.5924 25.703C26.0206 25.8136 26.0715 25.8196 26.1314 25.7807C26.2751 25.685 26.9219 25.042 27.2333 24.692C27.413 24.4856 27.6765 24.1656 27.8172 23.9772L28.0778 23.6362H28.506C28.7425 23.6362 28.9372 23.6481 28.9372 23.6601C28.9372 23.699 28.5419 24.2673 28.3113 24.5634C26.2452 27.2224 23.1939 28.9213 19.8192 29.2951C19.2622 29.355 17.6512 29.346 17.1242 29.2802C14.3843 28.9273 12.0756 27.8505 10.0723 25.9901C9.38361 25.35 8.52122 24.3151 8.14392 23.6721C8.12595 23.6452 8.21878 23.6362 8.56913 23.6362H9.0153L9.11411 23.7768Z" fill="#E30613"/>
<path d="M18.1243 5.46077C17.4326 5.69705 16.7738 6.4448 16.169 7.68009C16.0312 7.95825 15.9114 8.21248 15.9025 8.2394C15.8875 8.28128 15.9114 8.29324 16.0402 8.30819C16.7828 8.38895 18.7292 8.43083 19.7892 8.38596C21.0618 8.33212 21.1816 8.32315 21.1816 8.26632C21.1816 8.19155 20.7325 7.29126 20.5408 6.98617C20.1515 6.35806 19.7653 5.92138 19.37 5.66116C18.9538 5.39197 18.5316 5.32318 18.1243 5.46077Z" fill="#E30613"/>
<path d="M16.4504 5.57575C14.8454 5.91373 13.5339 6.4551 12.1624 7.3524C11.827 7.57074 11.7192 7.66346 11.8031 7.66346C11.8151 7.66346 12.0067 7.70534 12.2283 7.75319C12.9529 7.9177 14.4651 8.16595 14.9921 8.20782L15.1059 8.2168L15.2317 7.9177C15.597 7.06526 16.166 6.13506 16.6271 5.65052C16.7289 5.54285 16.7289 5.53985 16.66 5.54285C16.6181 5.54584 16.5253 5.5578 16.4504 5.57575Z" fill="#E30613"/>
<path d="M20.4779 5.66511C20.6845 5.90439 21.0259 6.37398 21.1996 6.65214C21.4122 6.9961 21.7326 7.62421 21.8703 7.97416L21.9751 8.23438L22.1698 8.21643C23.113 8.12371 25.3438 7.73189 25.3438 7.65711C25.3438 7.64216 25.1522 7.50457 24.9186 7.35203C23.643 6.51156 22.2297 5.91336 20.8253 5.61725C20.3432 5.51556 20.3462 5.51556 20.4779 5.66511Z" fill="#E30613"/>
<path d="M27.5627 14.0101C26.5656 14.1627 25.9847 14.8715 25.805 16.1517C25.7361 16.6512 25.7601 17.7249 25.8499 18.1437C26.1344 19.4537 26.868 20.0669 28.0807 20.0101C28.7126 19.9801 29.0569 19.8426 29.4312 19.4657C29.9523 18.9483 30.1619 18.2334 30.1649 16.9981C30.1649 15.9842 30.0181 15.3411 29.6648 14.8087C29.4193 14.4348 29.021 14.1597 28.5778 14.052C28.3293 13.9952 27.8113 13.9712 27.5627 14.0101Z" fill="#E30613"/>
<path d="M17.2589 25.6594C16.4505 25.7043 15.8965 25.7372 15.8875 25.7461C15.8635 25.7701 16.2408 26.5447 16.4385 26.8857C16.8637 27.6155 17.2829 28.106 17.7141 28.3872C17.9956 28.5696 18.1663 28.6294 18.4447 28.6534C18.7172 28.6743 18.9149 28.6294 19.2203 28.4739C19.5646 28.2974 20.0617 27.7979 20.4001 27.2865C20.6247 26.9485 21.1816 25.8867 21.1816 25.797C21.1816 25.7491 21.1188 25.7401 20.5378 25.7013C20.0467 25.6684 17.6542 25.6384 17.2589 25.6594Z" fill="#E30613"/>
<path d="M14.7885 25.8427C14.7406 25.8487 14.4531 25.8876 14.1507 25.9295C13.432 26.0282 12.8691 26.1239 12.2373 26.2585C11.836 26.3452 11.7282 26.3781 11.7522 26.408C11.8061 26.4738 12.5936 26.9793 12.9889 27.1976C14.013 27.7689 15.1269 28.1906 16.2408 28.4239C16.4714 28.4748 16.675 28.5137 16.693 28.5137C16.7109 28.5137 16.654 28.4299 16.5642 28.3252C16.0791 27.7719 15.621 27.0182 15.2497 26.1657L15.1059 25.8367L14.9921 25.8337C14.9293 25.8307 14.8394 25.8337 14.7885 25.8427Z" fill="#E30613"/>
<path d="M21.9033 26.0073C21.7925 26.2885 21.4212 27.0243 21.2265 27.3443C21.0169 27.6913 20.7624 28.0442 20.5408 28.2984C20.448 28.4061 20.3791 28.4958 20.3851 28.5048C20.418 28.5377 21.4361 28.2925 21.9811 28.119C22.9603 27.8079 24.194 27.1978 25.0863 26.5846L25.3498 26.4021L25.1911 26.3663C24.3886 26.1808 23.4274 26.0073 22.6638 25.9086C22.4003 25.8757 22.1368 25.8428 22.0799 25.8339C21.9751 25.8219 21.9751 25.8219 21.9033 26.0073Z" fill="#E30613"/>
</svg>
