<svg width="87" height="30" viewBox="0 0 87 30" fill="none" xmlns="http://www.w3.org/2000/svg">
<g clip-path="url(#clip0_4037_63835)">
<path d="M33.5457 0.923828H38.5162V1.43718H36.3233V7.15736H35.7386V1.43718H33.5457V0.923828Z" fill="#00347B"/>
<path d="M39.0644 0.923828H39.6857V3.63725H43.3771V0.923828H43.9618V7.15736H43.3771V4.1506H39.6857V7.15736H39.0644V0.923828Z" fill="#00347B"/>
<path d="M45.241 0.923828H49.5171V1.43718H45.8258V3.67391H49.2978V4.18726H45.8258V6.64401H49.5536V7.15736H45.2045L45.241 0.923828Z" fill="#00347B"/>
<path d="M33.5457 22.668H37.5294V23.1813H34.167V25.4181H37.1274V25.9314H34.167V28.9015H33.5457V22.668Z" fill="#00347B"/>
<path d="M40.8553 28.5354C42.4999 28.5354 43.1943 27.1421 43.1943 25.7854C43.1943 24.4287 42.4999 23.0353 40.8553 23.0353C39.2106 23.0353 38.5162 24.4287 38.5162 25.7854C38.5162 27.1421 39.2106 28.5354 40.8553 28.5354ZM40.8553 22.5586C42.7923 22.5586 43.7791 24.0986 43.7791 25.822C43.7791 27.5454 42.7923 29.0855 40.8553 29.0855C38.8817 29.0855 37.8949 27.5454 37.8949 25.822C37.8949 24.0986 38.8817 22.5586 40.8553 22.5586Z" fill="#00347B"/>
<path d="M44.6562 22.668H45.241V26.5548C45.241 27.9848 45.8989 28.5715 47.0684 28.5715C48.2379 28.5715 48.8958 28.0215 48.8958 26.5548V22.668H49.4805V26.6648C49.4805 27.9481 48.7861 29.0482 47.0684 29.0482C45.3506 29.0482 44.6562 27.9481 44.6562 26.6648V22.668Z" fill="#00347B"/>
<path d="M50.6866 22.668H51.3445L54.9627 27.9481V22.668H55.584V28.9015H54.9261L51.2714 23.6213V28.9015H50.6866V22.668Z" fill="#00347B"/>
<path d="M57.4114 28.4248H58.6906C60.4814 28.4248 61.2489 27.6915 61.2489 25.8214C61.2489 23.9513 60.4814 23.218 58.6906 23.218H57.4114V28.4248ZM56.8266 22.668H58.983C60.8834 22.7046 61.8337 23.7313 61.8337 25.7847C61.8337 27.8381 60.8469 28.8648 58.983 28.9015H56.8266V22.668Z" fill="#00347B"/>
<path d="M63.6976 26.4814H66.1463L64.9402 23.2913L63.6976 26.4814ZM64.6113 22.668H65.2692L67.7179 28.9015H67.0965L66.329 26.9581H63.5149L62.7474 28.9015H62.0895L64.6113 22.668Z" fill="#00347B"/>
<path d="M67.0235 22.668H71.9574V23.1813H69.8011V28.9015H69.2163V23.1813H67.0235V22.668Z" fill="#00347B"/>
<path d="M73.2 22.668H72.6153V28.9015H73.2V22.668Z" fill="#00347B"/>
<path d="M77.1106 28.5354C78.7553 28.5354 79.4497 27.1421 79.4497 25.7854C79.4497 24.4287 78.7553 23.0353 77.1106 23.0353C75.466 23.0353 74.7716 24.4287 74.7716 25.7854C74.7716 27.1421 75.4294 28.5354 77.1106 28.5354ZM77.1106 22.5586C79.0477 22.5586 80.0344 24.0986 80.0344 25.822C80.0344 27.5454 79.0477 29.0855 77.1106 29.0855C75.137 29.0855 74.1503 27.5454 74.1503 25.822C74.1503 24.0986 75.137 22.5586 77.1106 22.5586Z" fill="#00347B"/>
<path d="M80.9482 22.668H81.606L85.2242 27.9481H85.2608V22.668H85.8455V28.9015H85.1877L81.5329 23.6213V28.9015H80.9482V22.668Z" fill="#003465"/>
<path d="M33.5457 9.02734H36.9812V17.3509H41.9151V20.211H33.5457V9.02734Z" fill="#00347B"/>
<path d="M47.6166 9.02734H44.1811V20.211H47.6166V9.02734Z" fill="#00347B"/>
<path d="M50.1749 9.02734H53.6835L56.8997 15.0042H56.9363V9.02734H60.189V20.211H56.8632L53.4277 14.0875H53.3911V20.211H50.1749V9.02734Z" fill="#00347B"/>
<path d="M72.8711 15.8842C72.8711 19.001 71.2265 20.4677 67.791 20.4677C64.3555 20.4677 62.7108 19.001 62.7108 15.8842V9.02734H66.1463V15.1142C66.1463 16.2509 66.1463 17.681 67.8275 17.681C69.4356 17.681 69.4356 16.2509 69.4356 15.1142V9.02734H72.8711V15.8842Z" fill="#00347B"/>
<path d="M78.3532 14.2708L74.6619 9.02734H78.6822L80.3999 12.0708L82.0446 9.02734H85.8455L82.2639 14.3075L86.2476 20.211H82.1177L80.2172 16.8743L78.2436 20.211H74.333L78.3532 14.2708Z" fill="#00347B"/>
<path d="M6.31767 23.2907V12.0703H0.689316V28.9008H17.5013V23.2907H6.31767Z" fill="#0095FF"/>
<path d="M28.6849 0.814453H0.689316V9.24805H6.28112V6.4613H23.0931V23.2918H20.3154V28.902H28.6849V0.814453Z" fill="#00347B"/>
</g>
<defs>
<clipPath id="clip0_4037_63835">
<rect width="85.5583" height="28.2342" fill="white" transform="translate(0.689331 0.816406)"/>
</clipPath>
</defs>
</svg>
